<svg version="1.0" xmlns="http://www.w3.org/2000/svg" width="588.000000pt" height="644.000000pt" viewBox="0 0 588.000000 644.000000" preserveAspectRatio="xMidYMid meet">

<g transform="translate(0.000000,644.000000) scale(0.100000,-0.100000)" fill="#e91460" stroke="none">
<path d="M2643 6419 c-43 -22 -49 -63 -25 -158 55 -211 1 -452 -180 -816 -88 -177 -112 -195 -251 -195 -74 0 -86 -3 -105 -22 -42 -46 -40 -77 21 -378 l32 -155 0 -570 c0 -423 3 -584 13 -624 8 -36 32 -84 68 -138 51 -75 59 -83 88 -83 35 0 57 19 95 83 30 49 76 83 131 96 67 16 434 42 482 35 34 -6 42 -12 55 -42 16 -39 84 -144 116 -179 13 -15 32 -23 53 -23 109 0 161 285 184 1001 13 414 27 514 95 674 50 117 51 126 22 187 -58 125 -124 178 -271 219 -60 17 -107 23 -181 23 -100 0 -111 -2 -298 -60 -81 -25 -148 -33 -115 -14 9 6 76 92 149 193 72 100 173 234 224 297 51 63 100 129 109 147 65 128 -77 332 -325 467 -72 40 -149 54 -186 35z m415 -1450 c17 -6 35 -20 39 -32 9 -27 6 -248 -8 -592 -18 -454 -26 -497 -91 -531 -34 -18 -361 -53 -491 -54 l-69 0 7 123 c17 302 25 316 217 348 312 52 365 78 343 167 -10 42 -75 137 -110 160 -61 42 -188 47 -282 11 -50 -19 -134 -38 -146 -33 -9 3 -11 41 -7 152 8 235 5 233 350 285 56 9 219 6 248 -4z" fill="#e91460"/>
<path d="M4166 6048 c-21 -30 -20 -54 6 -124 94 -257 -112 -764 -459 -1126 -166 -173 -170 -211 -45 -401 55 -83 102 -112 171 -104 42 5 259 82 306 109 19 11 19 10 1 -18 -74 -116 -303 -357 -494 -521 -72 -63 -138 -126 -146 -141 -40 -78 -31 -163 26 -259 132 -221 166 -227 503 -88 234 96 481 182 549 191 74 11 91 1 151 -85 66 -95 111 -136 164 -152 34 -10 44 -9 72 7 56 33 74 76 74 174 0 77 -3 92 -37 162 -110 230 -295 408 -424 408 -36 0 -47 -5 -60 -25 -14 -22 -15 -35 -6 -88 13 -79 -2 -122 -50 -141 -32 -14 -207 -39 -353 -51 -38 -3 -85 -8 -104 -11 l-34 -6 59 54 c32 29 113 104 179 168 325 312 546 513 692 628 92 73 133 128 133 178 0 67 -84 202 -193 312 -80 82 -133 114 -189 116 -64 1 -80 -25 -88 -141 -6 -82 -12 -108 -38 -160 -62 -122 -120 -162 -265 -182 -73 -10 -290 -14 -257 -4 8 2 28 23 45 46 84 120 318 411 494 617 172 200 187 240 132 355 -28 60 -101 158 -150 202 -84 75 -199 123 -292 123 -48 0 -60 -4 -73 -22z" fill="#e91460"/>
<path d="M1110 5883 c-54 -21 -61 -57 -29 -149 50 -146 21 -305 -114 -618 -114 -263 -247 -472 -412 -646 -144 -152 -158 -222 -74 -362 57 -95 96 -135 143 -144 48 -8 90 4 236 71 63 28 153 67 200 85 47 18 91 38 99 44 67 50 -408 -574 -574 -754 -52 -57 -80 -125 -72 -180 6 -50 89 -190 138 -235 45 -40 107 -59 168 -51 26 4 103 36 182 76 156 79 408 186 528 224 108 34 128 29 204 -51 88 -91 148 -105 216 -48 41 35 65 102 59 164 -13 138 -220 418 -358 484 -82 39 -128 44 -164 16 -25 -19 -27 -27 -22 -60 3 -20 15 -58 26 -84 35 -82 25 -122 -37 -154 -36 -18 -350 -81 -401 -80 -26 1 -40 3 -30 6 9 2 19 10 21 18 10 25 230 320 363 485 172 215 292 354 452 523 129 136 172 199 172 249 0 38 -62 154 -121 226 -28 35 -78 84 -111 108 -51 38 -67 44 -108 44 -40 0 -50 -4 -64 -25 -9 -13 -16 -44 -16 -67 0 -90 -38 -184 -135 -332 -66 -103 -95 -133 -149 -157 -44 -19 -339 -64 -356 -54 -10 6 76 164 188 343 42 68 155 227 249 353 186 248 204 283 183 351 -51 171 -262 363 -420 382 -25 3 -52 3 -60 -1z" fill="#e91460"/>
<path d="M2510 3213 c-29 -11 -60 -47 -60 -70 0 -13 20 -63 45 -112 57 -113 60 -154 11 -205 -18 -20 -43 -36 -54 -36 -11 0 -24 -4 -27 -10 -4 -6 6 -10 22 -10 37 0 73 -26 73 -52 0 -12 -12 -36 -26 -55 -14 -19 -24 -36 -22 -38 2 -2 32 -1 66 2 61 6 63 7 57 31 -20 81 -21 78 31 95 27 9 73 20 102 25 76 13 69 -11 -10 -35 -34 -10 -63 -24 -66 -32 -4 -11 8 -13 67 -7 47 5 71 4 71 -3 0 -6 -12 -13 -27 -17 -82 -18 -103 -26 -103 -39 0 -22 51 -27 105 -10 60 18 65 18 65 5 0 -33 -146 -63 -190 -40 -13 7 -28 6 -47 -1 -15 -6 -71 -13 -123 -16 -67 -4 -100 -10 -113 -22 -18 -15 -20 -14 -38 8 -42 51 -13 161 51 194 l35 19 -34 -6 c-18 -3 -44 -6 -58 -6 -20 0 -23 -4 -18 -20 6 -18 2 -20 -40 -20 -58 0 -103 -23 -111 -56 -10 -38 5 -46 63 -33 35 8 55 9 69 1 17 -10 17 -11 -6 -20 -14 -6 -37 -13 -52 -16 -21 -5 -28 -12 -28 -30 0 -13 -7 -29 -15 -36 -13 -10 -19 -9 -36 6 -55 50 -64 124 -22 175 l27 32 -49 -6 c-28 -3 -84 -9 -125 -13 -41 -4 -81 -12 -89 -18 -7 -6 -41 -20 -74 -31 -85 -28 -87 -47 -6 -45 86 2 91 1 84 -9 -3 -5 -30 -15 -60 -22 -60 -13 -85 -33 -68 -50 11 -11 73 -8 141 6 21 5 32 3 32 -4 0 -18 -62 -51 -97 -51 -38 0 -39 -2 -16 -41 27 -45 51 -47 226 -14 42 8 -165 -200 -343 -345 -379 -307 -822 -581 -1377 -852 -132 -65 -243 -123 -245 -129 -2 -7 18 -46 45 -87 l49 -74 42 5 c73 11 416 124 621 205 664 265 1155 564 1610 980 l120 110 3 -216 c3 -251 -18 -588 -48 -759 -12 -65 -36 -174 -55 -242 -44 -156 -48 -296 -14 -422 36 -134 166 -336 240 -375 68 -35 128 15 160 133 51 182 77 631 59 996 -14 262 -8 673 10 806 14 108 48 135 111 91 15 -12 79 -76 141 -143 61 -67 216 -228 342 -357 566 -577 737 -714 956 -766 151 -36 691 -28 1137 16 92 9 133 28 133 63 0 41 -73 150 -116 173 -22 12 -100 34 -174 49 -595 119 -1122 328 -1655 656 -196 120 -506 346 -626 457 l-52 48 44 31 c37 24 50 28 70 20 15 -5 103 -5 239 3 199 11 1069 39 1222 39 36 0 69 5 73 10 4 7 16 6 35 -4 16 -8 46 -15 67 -15 21 0 121 -14 223 -30 102 -16 210 -30 240 -29 110 1 160 39 146 112 -16 85 -198 299 -228 269 -9 -9 -7 -28 9 -78 22 -67 21 -86 -5 -116 -24 -28 -49 -22 -123 32 -38 28 -72 50 -76 50 -5 -1 -17 -15 -28 -33 -14 -22 -28 -32 -45 -32 -14 0 -31 -4 -39 -9 -8 -5 -41 -9 -74 -9 -70 1 -107 23 -119 71 -5 18 -15 32 -24 32 -23 0 -27 -26 -9 -54 19 -29 13 -46 -16 -46 -12 0 -28 14 -41 36 -16 28 -26 34 -46 32 -18 -2 -28 -11 -32 -28 -9 -37 -41 -37 -68 0 -19 25 -26 28 -42 20 -10 -6 -45 -13 -77 -16 -66 -6 -101 8 -120 46 -11 22 -13 23 -19 6 -4 -10 -2 -27 4 -37 18 -28 15 -39 -11 -39 -17 0 -27 9 -38 33 -11 26 -19 32 -42 30 -15 -1 -41 -13 -57 -27 -30 -25 -82 -42 -99 -32 -5 4 -17 29 -26 56 -9 28 -22 50 -28 50 -7 0 -27 -21 -46 -45 -18 -25 -37 -45 -42 -45 -9 0 -26 18 -53 55 -13 18 -15 18 -30 -19 -11 -26 -21 -37 -33 -34 -15 3 -17 13 -14 83 3 87 11 105 47 105 19 0 30 -11 52 -57 15 -31 32 -57 37 -57 6 -1 22 24 37 54 32 66 55 71 80 20 9 -19 17 -44 18 -56 0 -11 8 -29 19 -38 17 -16 19 -16 25 1 66 180 87 194 143 93 14 -25 30 -48 37 -52 17 -12 36 -9 36 5 0 21 94 107 117 107 26 0 47 -25 39 -45 -4 -11 -13 -14 -29 -10 -34 9 -79 -39 -75 -79 l3 -31 71 0 c81 0 114 18 114 64 0 40 11 72 24 68 6 -2 16 -21 22 -42 20 -72 74 -76 74 -5 0 51 25 54 45 5 13 -29 40 -55 59 -55 3 0 6 17 8 37 4 43 12 46 131 58 65 6 77 4 77 -8 0 -11 -18 -19 -57 -27 -64 -12 -85 -21 -91 -38 -2 -7 21 -12 70 -14 41 -2 73 -7 72 -13 0 -5 -30 -14 -67 -20 -74 -11 -85 -18 -67 -40 13 -16 73 -20 127 -9 25 5 33 13 43 47 16 56 37 87 58 87 10 0 44 -29 75 -64 52 -59 90 -86 103 -73 3 3 -4 34 -15 70 -19 62 -19 107 0 107 45 0 -82 74 -191 110 -93 31 -189 28 -575 -19 -325 -40 -480 -56 -623 -66 -40 -3 -190 -16 -335 -29 -499 -47 -501 -47 -504 4 -3 41 -57 141 -101 186 -71 73 -289 144 -362 117z m1018 -355 c-3 -7 -33 -21 -68 -33 -95 -30 -92 -49 5 -40 52 5 76 4 71 -3 -3 -5 -18 -13 -33 -16 -85 -21 -103 -28 -103 -41 0 -24 44 -28 110 -11 63 16 77 16 66 -2 -20 -32 -150 -55 -201 -36 -34 14 -69 134 -43 150 19 12 138 42 171 43 18 1 27 -3 25 -11z m-355 -64 c61 -31 120 -63 130 -72 46 -40 -3 -67 -143 -76 -107 -8 -133 0 -112 34 17 27 15 51 -7 109 -32 79 -19 80 132 5z m-169 -26 c41 -63 25 -119 -39 -137 -61 -17 -150 29 -143 73 5 32 25 29 59 -8 34 -38 63 -45 94 -22 18 13 18 15 3 38 -15 22 -22 50 -19 71 2 15 31 6 45 -15z" fill="#e91460"/>
<path d="M3110 2738 c0 -13 3 -34 7 -47 5 -22 9 -23 55 -17 55 8 78 15 78 25 0 9 -77 47 -112 55 -24 6 -28 3 -28 -16z" fill="#e91460"/>
<path d="M4130 2850 c0 -23 4 -30 20 -30 23 0 25 17 6 43 -19 25 -26 21 -26 -13z" fill="#e91460"/>
<path d="M2375 2717 c-24 -20 -26 -26 -18 -57 5 -19 16 -36 25 -38 24 -5 88 56 88 83 0 40 -54 47 -95 12z" fill="#e91460"/>
<path d="M1553 2696 c-67 -6 -124 -14 -127 -17 -3 -2 21 -20 52 -39 31 -18 74 -46 94 -62 l37 -29 3 28 c4 40 33 41 53 3 22 -42 16 -74 -13 -78 -17 -3 -25 2 -29 17 -5 20 -6 20 -24 -3 -15 -19 -33 -25 -101 -33 -94 -12 -157 -7 -165 12 -2 8 3 25 12 39 15 23 15 29 -2 82 l-18 57 -103 -7 c-150 -9 -272 -44 -272 -77 0 -8 23 -9 74 -4 46 4 76 3 80 -4 9 -13 -4 -20 -66 -31 -29 -6 -59 -17 -68 -26 -13 -14 -13 -17 4 -30 26 -18 57 -18 122 3 58 18 75 13 53 -13 -19 -23 -71 -44 -109 -44 -37 0 -37 -4 -4 -47 25 -32 29 -34 82 -32 32 1 69 -3 84 -9 24 -10 29 -8 42 10 14 19 17 20 39 6 16 -11 37 -14 71 -11 42 5 49 9 66 44 11 21 20 46 20 55 0 11 12 1 30 -24 25 -35 36 -42 63 -42 61 0 79 10 74 39 -2 14 -8 34 -12 44 -12 28 11 20 54 -18 44 -40 51 -42 49 -17 -4 55 2 58 36 17 39 -45 50 -43 41 9 -5 25 -16 41 -40 54 -27 17 -35 30 -49 86 -18 72 -16 83 18 96 20 8 20 9 -4 8 -14 -1 -80 -6 -147 -12z m-333 -228 c0 -13 -47 -58 -61 -58 -14 0 -6 65 12 86 10 13 14 12 30 -2 11 -10 19 -21 19 -26z" fill="#e91460"/>
<path d="M640 2630 c-41 -4 -115 -8 -163 -9 -57 -1 -96 -6 -110 -15 -12 -8 -44 -18 -72 -21 -91 -13 -102 -32 -65 -105 11 -22 20 -50 20 -62 1 -33 80 -141 110 -149 66 -18 473 3 511 27 5 3 6 17 3 32 l-7 27 29 -27 c27 -25 34 -27 83 -21 29 3 55 12 58 19 3 7 -6 34 -18 60 -18 35 -33 50 -62 62 -45 18 -61 48 -72 135 -7 51 -10 57 -31 57 -31 0 -31 -18 1 -80 14 -27 25 -58 25 -68 0 -29 -38 -72 -63 -72 -12 0 -56 20 -97 45 -41 25 -80 45 -86 45 -6 0 -17 -14 -25 -32 -8 -17 -24 -38 -36 -46 l-23 -14 0 63 c0 71 23 132 52 137 11 2 41 -19 75 -51 50 -47 109 -87 128 -87 11 0 4 39 -19 96 -27 67 -24 66 -146 54z m-162 -44 c30 -16 62 -65 62 -93 0 -12 -10 -34 -23 -49 -31 -36 -126 -47 -157 -19 -36 32 -21 112 28 152 30 26 56 28 90 9z" fill="#e91460"/>
<path d="M402 2528 c-21 -21 -15 -67 11 -79 27 -12 74 3 84 27 13 33 -68 79 -95 52z" fill="#e91460"/>
<path d="M82 2610 c-72 -17 -90 -66 -49 -129 70 -107 83 -124 106 -140 27 -19 121 -54 127 -48 11 10 -30 97 -47 102 -12 4 -30 30 -46 66 -26 59 -43 73 -93 74 -15 0 -26 7 -28 17 -4 19 29 32 135 53 l68 13 -70 0 c-38 0 -85 -4 -103 -8z" fill="#e91460"/>
<path d="M1400 2586 c0 -49 17 -76 48 -76 33 0 92 18 92 28 0 16 -102 72 -131 72 -5 0 -9 -11 -9 -24z" fill="#e91460"/>
</g>
</svg>