<svg version="1.0" xmlns="http://www.w3.org/2000/svg" width="512.000000pt" height="512.000000pt" viewBox="-3 -3 518 518" preserveAspectRatio="xMidYMid meet"><g id="deeditor_bgCarrier" stroke-width="0">
  <rect id="dee_c_e" x="-3" y="-3" width="518" height="518" rx="38.4" fill="#384343" strokewidth="0"/>
</g>

<g transform="translate(0.000000,512.000000) scale(0.100000,-0.100000)" fill="#1ee946" stroke="none">
<path d="M2515 4702 c6 -5 210 -130 455 -277 467 -281 573 -351 732 -484 123 -103 173 -160 315 -354 64 -87 117 -156 119 -154 2 2 -3 73 -11 157 -16 152 -57 382 -90 493 -19 67 -52 102 -198 208 -273 201 -577 332 -907 390 -126 23 -432 38 -415 21z" fill="#1ee946"/>
<path d="M1359 4346 c-469 -320 -796 -804 -904 -1341 -23 -115 -47 -277 -41 -282 2 -2 53 77 113 174 127 205 450 723 741 1191 110 177 197 322 193 322 -4 0 -50 -29 -102 -64z" fill="#1ee946"/>
<path d="M1998 3772 c-146 -235 -386 -620 -533 -857 -147 -236 -282 -454 -302 -483 -19 -30 -33 -55 -31 -57 11 -11 696 -434 753 -465 188 -103 395 -141 577 -106 332 64 638 342 848 771 134 275 173 522 110 704 -45 129 -189 298 -354 416 -53 37 -740 470 -786 495 -13 7 -68 -76 -282 -418z" fill="#1ee946"/>
<path d="M4641 2954 c-80 -476 -333 -1076 -636 -1509 -252 -360 -577 -686 -905 -907 -58 -39 -109 -75 -115 -81 -14 -13 47 -2 165 32 582 168 1069 573 1338 1116 164 331 231 641 219 1019 -5 164 -28 361 -46 394 -4 7 -13 -22 -20 -64z" fill="#1ee946"/>
<path d="M480 2002 c0 -21 73 -228 110 -311 109 -249 302 -520 500 -702 128 -119 152 -133 272 -157 177 -37 267 -45 458 -45 352 1 668 72 954 214 78 39 281 168 274 174 -2 2 -37 -8 -78 -21 -176 -58 -419 -73 -615 -39 -237 41 -440 122 -825 330 -135 73 -396 213 -580 312 -184 100 -365 197 -403 218 -37 20 -67 33 -67 27z" fill="#1ee946"/>
</g>
</svg>