<?xml version="1.0" standalone="no"?>
<!DOCTYPE svg PUBLIC "-//W3C//DTD SVG 20010904//EN"
 "http://www.w3.org/TR/2001/REC-SVG-20010904/DTD/svg10.dtd">
<svg version="1.0" xmlns="http://www.w3.org/2000/svg"
 width="1024.000000pt" height="1024.000000pt" viewBox="0 0 1024.000000 1024.000000"
 preserveAspectRatio="xMidYMid meet">

<g transform="translate(0.000000,1024.000000) scale(0.100000,-0.100000)"
fill="#000000" stroke="none">
<path d="M5571 9066 c-25 -6 -46 -17 -48 -23 -5 -14 168 -57 203 -50 16 3 39
-3 58 -13 17 -10 52 -22 79 -25 39 -6 54 -15 82 -48 19 -22 35 -44 35 -49 0
-4 7 -8 16 -8 9 0 30 -14 46 -30 16 -17 38 -31 51 -33 12 -1 27 -9 34 -18 14
-19 99 -49 137 -49 14 0 29 -6 33 -14 4 -7 18 -19 31 -25 13 -7 21 -18 19 -25
-8 -20 25 -42 86 -60 48 -14 59 -22 78 -56 13 -23 33 -43 45 -46 12 -3 43 -17
70 -30 26 -13 55 -24 65 -24 10 0 21 -4 24 -10 3 -5 17 -10 29 -10 14 0 35
-13 52 -33 16 -18 59 -55 96 -81 37 -26 70 -56 73 -67 4 -10 15 -24 26 -29 10
-6 19 -18 19 -28 0 -19 57 -62 83 -62 10 0 20 -7 23 -15 4 -8 11 -15 16 -15 6
0 25 -7 44 -16 28 -13 37 -25 45 -60 6 -24 15 -44 19 -44 18 0 93 -85 110
-126 14 -32 28 -48 49 -55 17 -6 33 -19 36 -30 4 -10 13 -19 20 -19 17 0 57
-53 75 -98 7 -18 37 -54 66 -81 43 -40 54 -56 54 -81 0 -18 6 -33 15 -37 9 -3
23 -19 31 -35 8 -16 26 -33 40 -38 38 -15 42 -40 11 -64 -15 -12 -27 -26 -27
-32 0 -12 50 -67 72 -80 27 -15 26 -46 -2 -61 -30 -16 -227 -17 -285 -2 -22 5
-90 14 -151 19 -61 4 -144 17 -185 29 -41 11 -128 27 -194 35 -127 16 -165 23
-365 61 -69 13 -145 27 -170 30 -25 3 -85 15 -135 25 -49 10 -146 30 -215 44
-69 14 -156 30 -195 36 -38 5 -94 16 -123 24 -29 9 -88 20 -130 26 -42 6 -99
17 -126 25 -27 8 -65 15 -85 15 -20 0 -52 5 -71 10 -39 12 -287 64 -395 84
-38 7 -88 20 -109 29 -21 10 -64 20 -95 23 -31 4 -82 15 -113 25 -32 11 -75
19 -97 19 -22 0 -75 11 -118 25 -43 14 -87 25 -99 25 -11 0 -54 9 -95 20 -41
11 -89 20 -106 20 -18 0 -60 9 -93 21 -60 21 -212 51 -350 71 -41 6 -124 23
-185 39 -60 15 -144 33 -185 39 -136 20 -183 29 -290 59 -58 16 -127 33 -155
36 -27 4 -76 15 -108 26 -31 10 -72 19 -91 19 -45 0 -95 18 -131 48 -28 23
-33 24 -125 17 -52 -3 -119 -15 -148 -26 -29 -10 -68 -19 -86 -19 -36 0 -96
-19 -163 -51 -42 -21 -43 -21 -85 -1 -47 21 -214 76 -265 87 -31 6 -34 4 -108
-95 -119 -160 -305 -452 -305 -478 0 -5 30 -17 67 -27 38 -10 73 -21 78 -26 6
-4 28 -10 50 -14 22 -4 56 -11 75 -17 51 -16 86 -12 122 15 29 21 45 24 140
26 114 2 122 -1 122 -49 l1 -25 120 1 c66 0 165 2 220 4 98 3 186 -10 315 -45
30 -8 73 -15 96 -15 23 0 60 -7 84 -15 23 -8 82 -22 133 -30 50 -9 99 -21 108
-26 23 -12 163 -39 259 -49 41 -5 136 -20 210 -35 74 -15 160 -30 190 -35 30
-4 77 -15 103 -25 27 -9 81 -22 120 -30 131 -26 298 -64 364 -85 36 -11 78
-20 94 -20 17 0 67 -9 112 -19 45 -11 136 -32 202 -46 156 -34 271 -61 370
-86 44 -11 103 -24 130 -29 56 -10 177 -46 214 -64 46 -21 53 -79 45 -381 -3
-148 -8 -322 -10 -385 -3 -63 -5 -137 -5 -163 1 -55 -13 -66 -56 -44 -16 9
-64 20 -107 26 -42 6 -86 16 -97 21 -31 17 -189 -16 -189 -39 0 -20 57 -28
147 -18 83 8 100 7 163 -12 74 -23 100 -43 131 -102 18 -37 52 -147 69 -227 5
-24 19 -64 30 -89 11 -25 20 -55 20 -67 0 -11 10 -44 22 -73 20 -49 20 -56 8
-110 -8 -31 -22 -65 -32 -75 -10 -10 -18 -30 -18 -46 0 -34 -22 -68 -50 -75
-28 -7 -70 50 -77 105 -3 24 -17 66 -30 95 -21 45 -23 61 -17 114 6 51 13 68
45 106 22 24 39 55 39 68 0 13 4 35 10 49 13 35 5 50 -32 64 -27 10 -36 9 -62
-7 -76 -46 -172 -30 -219 35 -25 35 -27 45 -22 100 l5 62 -49 16 c-130 42
-210 1 -169 -88 10 -23 8 -28 -15 -47 -41 -31 -35 -49 37 -107 23 -19 20 -49
-8 -67 -34 -23 -62 -6 -71 41 -7 42 -46 108 -72 123 -17 10 -17 12 0 25 19 15
23 40 5 34 -12 -4 -34 -36 -60 -86 -9 -18 -9 -27 0 -40 23 -32 25 -45 14 -89
-7 -24 -12 -83 -12 -133 0 -49 -4 -92 -10 -95 -18 -11 -10 -38 32 -109 47 -80
119 -156 147 -156 10 0 30 -11 45 -25 37 -34 104 -33 75 1 -8 9 -5 15 10 24
22 11 23 9 25 -25 1 -29 40 -27 44 3 3 22 7 24 52 26 19 1 26 7 28 26 3 34 -3
40 -73 75 -65 32 -78 55 -49 86 23 26 39 24 93 -10 25 -16 55 -32 66 -35 12
-3 38 -39 64 -87 49 -91 65 -101 141 -92 29 3 50 2 50 -4 0 -5 6 -18 14 -28
13 -18 16 -17 59 19 25 20 65 66 88 102 24 36 50 64 60 64 9 0 28 -18 43 -40
14 -22 43 -51 64 -65 20 -14 51 -35 68 -47 34 -25 99 -69 154 -104 39 -24 98
-57 210 -116 41 -22 93 -51 115 -63 149 -87 405 -162 625 -184 165 -17 525 8
659 46 31 8 75 18 98 22 23 4 53 15 67 24 14 10 50 24 80 31 30 8 68 23 83 34
15 11 61 41 101 68 40 26 83 62 96 78 13 17 90 101 170 186 85 89 158 176 173
204 37 72 121 156 156 156 38 0 97 -40 97 -66 0 -11 18 -57 40 -103 22 -45 40
-92 40 -104 1 -27 42 -166 55 -187 6 -8 19 -20 30 -26 31 -17 43 -78 44 -211
1 -93 4 -123 14 -123 22 0 74 101 81 155 9 83 25 125 46 125 28 0 33 15 31
101 0 47 5 96 13 121 8 23 13 44 12 47 -2 3 3 35 10 71 27 120 34 193 37 344
2 164 -16 417 -34 481 -17 62 -58 282 -68 365 -5 41 -16 95 -25 119 -45 122 1
200 158 270 73 33 75 37 52 111 -48 158 -209 543 -243 582 -13 15 -21 13 -101
-25 -71 -34 -98 -41 -147 -42 l-60 0 -20 41 c-11 23 -42 70 -70 105 -80 102
-102 134 -109 157 -4 12 -23 34 -42 48 -19 15 -34 31 -34 36 0 6 -13 30 -30
55 -16 24 -30 47 -30 51 0 4 -16 23 -36 42 -20 19 -41 46 -46 61 -5 15 -25 38
-43 51 -19 13 -40 36 -46 51 -13 31 -67 77 -91 77 -9 0 -21 -7 -28 -15 -18
-22 -35 -3 -21 23 23 43 3 52 -60 27 -20 -7 -49 19 -49 45 0 11 10 20 26 24
20 5 25 12 22 34 -2 19 -9 28 -25 30 -19 3 -23 -1 -23 -22 0 -28 -18 -41 -73
-51 -32 -6 -37 -5 -37 11 0 40 14 65 41 80 31 16 34 21 19 44 -7 12 -12 12
-22 2 -7 -7 -37 -12 -72 -11 -74 1 -139 31 -144 67 -4 23 -4 23 -24 5 -20 -18
-21 -17 -52 20 -17 20 -38 37 -46 37 -14 0 -47 23 -134 93 -21 17 -51 30 -72
32 -20 2 -46 13 -58 24 -15 14 -36 21 -65 21 -30 0 -48 6 -65 23 -32 31 -83
67 -95 67 -6 0 -25 9 -43 20 -18 11 -41 20 -50 20 -29 0 -151 52 -171 72 -10
10 -25 18 -34 18 -25 0 -83 23 -83 33 0 4 -25 7 -55 6 -47 -2 -58 1 -78 23
-19 20 -38 27 -88 33 -45 5 -77 16 -108 36 -25 16 -52 29 -60 29 -9 0 -29 7
-46 16 -61 32 -219 55 -338 50 -62 -2 -116 -1 -122 3 -18 15 -129 19 -174 7z
m2553 -1089 c26 -19 17 -51 -15 -55 -29 -3 -64 29 -56 53 8 18 47 20 71 2z
m-922 -1055 c55 -53 60 -61 54 -89 -5 -20 -25 -45 -59 -72 -73 -60 -177 -160
-177 -171 0 -16 48 -23 81 -11 46 16 106 13 135 -6 14 -9 40 -24 57 -33 18
-10 36 -29 41 -44 8 -22 6 -29 -12 -42 -32 -22 -69 -100 -82 -175 -32 -178
-96 -375 -128 -397 -36 -24 -52 -9 -52 48 0 32 -5 52 -12 54 -7 3 -55 7 -106
10 -93 5 -93 5 -128 -26 -29 -25 -39 -30 -52 -21 -18 11 -18 14 -4 113 9 61
16 95 58 268 11 42 17 108 16 175 l0 109 27 -5 c14 -3 38 -9 52 -12 24 -6 32
1 90 78 80 107 116 194 101 244 -25 81 19 84 100 5z m-614 -36 c39 -21 102
-100 102 -130 0 -14 -9 -31 -22 -40 -56 -40 -289 -279 -286 -294 3 -14 18 -17
93 -18 l90 -1 43 45 c23 25 45 57 48 71 3 14 7 36 10 49 5 27 44 30 66 5 28
-31 59 -100 53 -116 -4 -8 -63 -58 -133 -110 -212 -159 -348 -294 -300 -298
52 -4 185 4 193 12 6 6 5 21 -4 42 -18 46 -18 61 1 65 21 4 97 -44 104 -66 3
-9 14 -34 24 -54 27 -51 25 -72 -10 -110 l-30 -33 -43 48 -43 49 -64 -13 c-36
-6 -94 -20 -129 -30 -117 -35 -171 -21 -171 44 0 24 10 40 52 76 295 261 312
285 174 247 -117 -33 -140 -35 -163 -20 -27 17 -45 48 -38 66 3 7 22 24 43 38
52 36 171 155 220 221 48 66 83 155 71 184 -4 11 -8 35 -8 53 -1 36 13 41 57
18z m1105 -162 c47 -37 81 -92 71 -117 -5 -13 -148 -139 -262 -229 -61 -48
-62 -70 -2 -81 116 -21 112 -21 149 17 25 25 36 48 40 78 5 35 10 44 28 46 24
3 68 -49 93 -108 11 -27 10 -33 -6 -51 -11 -12 -39 -31 -64 -44 -25 -13 -96
-58 -159 -100 -63 -42 -131 -85 -152 -96 -43 -21 -69 -57 -47 -63 7 -3 59 -7
116 -10 l104 -6 -2 32 c-3 52 -1 58 19 58 31 0 67 -37 102 -105 l34 -65 -20
-37 c-27 -51 -64 -56 -94 -15 -12 17 -21 34 -21 39 0 6 -8 17 -18 26 -15 14
-27 14 -112 2 -83 -11 -137 -22 -202 -41 -23 -7 -78 52 -78 82 0 31 35 71 83
96 45 22 217 145 229 162 4 5 4 14 2 18 -8 13 -85 8 -129 -7 -37 -13 -41 -13
-62 7 -25 23 -30 64 -10 88 7 8 39 37 72 65 112 93 145 128 171 182 15 29 30
56 35 59 5 3 9 39 9 80 0 89 11 94 83 38z m-768 -855 c57 -32 70 -52 60 -91
-10 -38 14 -49 132 -58 59 -5 162 -16 228 -26 66 -9 169 -18 228 -20 100 -3
112 -5 145 -30 63 -46 122 -107 122 -126 0 -37 -87 -36 -140 2 -15 11 -37 20
-49 20 -11 0 -38 7 -58 14 -21 8 -101 22 -178 31 -77 8 -168 22 -202 29 -34 8
-92 15 -130 17 -55 3 -68 1 -71 -11 -3 -19 137 -185 210 -249 120 -106 279
-218 360 -256 18 -8 40 -19 48 -24 28 -17 137 -61 153 -61 8 0 20 -7 27 -15
19 -23 -2 -40 -48 -37 -123 7 -238 22 -316 43 -138 36 -158 58 -445 492 -42
63 -68 82 -75 55 -1 -7 -13 -42 -24 -78 -12 -36 -22 -88 -22 -115 0 -28 -7
-78 -16 -110 -8 -33 -21 -96 -29 -140 -14 -86 -48 -189 -73 -217 -27 -32 -51
-22 -74 30 -20 45 -20 50 -5 126 9 45 27 95 42 117 14 21 25 43 25 49 0 6 9
36 20 67 11 32 20 77 20 100 0 24 9 69 20 100 11 32 20 65 20 75 0 24 -38 24
-64 -1 -35 -31 -231 -126 -321 -155 -27 -8 -72 -23 -100 -31 -27 -9 -91 -25
-142 -35 -50 -10 -111 -25 -135 -33 -56 -19 -183 -10 -183 13 0 11 18 17 71
22 38 4 92 16 118 28 26 11 56 20 67 20 56 0 351 133 480 216 53 34 61 45 48
60 -10 12 -73 18 -389 35 -195 10 -207 12 -262 40 -46 23 -58 34 -58 53 0 41
22 49 71 26 29 -13 66 -20 109 -20 36 0 90 -7 120 -15 30 -9 136 -20 235 -25
99 -5 203 -14 231 -19 61 -12 124 -4 131 17 3 8 -1 27 -11 42 -9 16 -16 39
-16 52 0 48 20 49 95 7z m-2047 -737 c5 -30 -14 -52 -45 -52 -31 0 -39 24 -18
56 21 32 58 30 63 -4z"/>
<path d="M6936 6485 c-3 -9 -6 -29 -6 -45 0 -16 -4 -39 -9 -53 -16 -41 0 -51
69 -43 56 7 65 5 86 -15 30 -28 31 -57 1 -68 -12 -5 -54 -6 -92 -4 -80 6 -85
3 -105 -67 -17 -64 -18 -101 0 -110 8 -5 55 -13 103 -19 103 -14 112 -10 122
52 4 23 18 74 31 114 15 48 21 84 17 107 -4 24 0 44 11 60 19 31 20 56 3 80
-19 26 -221 35 -231 11z"/>
<path d="M5456 9051 c-4 -5 -2 -12 3 -15 5 -4 12 -2 15 3 4 5 2 12 -3 15 -5 4
-12 2 -15 -3z"/>
<path d="M7760 8386 c0 -9 5 -16 10 -16 6 0 10 4 10 9 0 6 -4 13 -10 16 -5 3
-10 -1 -10 -9z"/>
<path d="M3180 5850 c-76 -8 -170 -40 -214 -74 -17 -13 -41 -26 -52 -30 -33
-10 -118 -114 -157 -193 -42 -82 -66 -176 -74 -289 -5 -67 -2 -92 16 -146 26
-79 79 -169 129 -221 37 -39 136 -99 182 -112 14 -4 41 -14 60 -23 56 -27 216
-23 305 7 119 41 216 95 266 148 62 66 118 153 131 200 44 170 47 217 18 318
-47 164 -133 273 -278 348 -63 33 -217 79 -251 75 -9 0 -45 -4 -81 -8z"/>
<path d="M5310 4871 c0 -6 5 -13 10 -16 6 -3 10 1 10 9 0 9 -4 16 -10 16 -5 0
-10 -4 -10 -9z"/>
<path d="M5146 4811 c-17 -19 -17 -20 3 -30 33 -18 101 -11 101 10 0 10 -53
39 -73 39 -8 0 -22 -9 -31 -19z"/>
</g>
</svg>
