<svg xmlns="http://www.w3.org/2000/svg" xmlns:xlink="http://www.w3.org/1999/xlink" viewBox="0 0 345 369.05"><defs><style>.cls-1{fill:none;}.cls-2{clip-path:url(#clip-path);}</style><clipPath id="clip-path" transform="translate(-0.06 -0.11)"><rect class="cls-1" width="345.11" height="369.16"/></clipPath></defs><g id="Layer_2" data-name="Layer 2"><g id="Capa_1" data-name="Capa 1"><g id="Artwork_1" data-name="Artwork 1"><g class="cls-2"><g class="cls-2"><path d="M130.89,165.75a230.08,230.08,0,0,1-1.63-32.59c.27-13.89,1.27-18.06-.19-27.5-1-6.54-2.54-13-3.72-19.52q-.54-3.27-1.09-6.53a7.58,7.58,0,0,1,8.45-8.45c.9.19,1.9.28,2.81.46,2.36.36,5.81-1.18,10.35-7.72m-.59,1c5.08-13.43,13.29-36.13,15.93-47.93a7.7,7.7,0,0,0-2.45-7.17,5.85,5.85,0,0,1-2-6.08A5.6,5.6,0,0,1,159.85.45c.9-.45,3.9-1.54,16.06,5.63,8,4.63,9.17,7.26,10.53,8.26a7.25,7.25,0,0,1,2.54,8c-1.54,4.08-4.26,7.44-7,10.8-6.17,7.72-12.52,15.34-18.6,23.15-3.54,4.54-6.72,9.26-10.08,13.89a2.15,2.15,0,0,0-.45,1.72,2,2,0,0,0,1.72.64,88,88,0,0,0,9.71-2c5.18-1.45,12.53-5.63,18.7-6.17,7-.64,12.53,1.9,15.8,3.45,5.08,2.36,11.34,5.26,13.25,10.8,2.09,6.26-5.36,10.16-6.45,20.33-1.09,10-1.63,20.06-1.81,30.13-.18,14.8-1,29.5-3.72,44.12a78,78,0,0,1-3.63,11.53,4.61,4.61,0,0,1-4.45,3.35,3.9,3.9,0,0,1-4-2.08,25,25,0,0,1-3.17-8.54,7.54,7.54,0,0,0-7.9-5.9c-7.35.37-14.7.64-22.06,1.18a39.74,39.74,0,0,0-9.07,1.91c-1.27.45-2.36,1.91-3.27,3-2.09,2.63-3.81,5.71-6.26,8.17a3.25,3.25,0,0,1-2.55,1.27c-1.18-.28-1.81-2-2.08-2.82-1.55-4.81-1-15.16-.82-18.33m52.65-83.06a4.72,4.72,0,0,0-1.91-.54,45.92,45.92,0,0,0-15,.09c-5.63.91-11.16,2.27-16.79,2.54a3.38,3.38,0,0,0-1.27.36c-2.72.91-3.18,1.64-3.09,4.54.28,4.72.64,9.53.64,14.34,0,3.09-.64,6.27-.91,9.35-.09.91-.09,2.18.45,2.54s1.82.28,2.64,0c5.62-1.72,11.07-3.9,16.79-5.17s10.89.64,14.52,5.63c1.73,2.36,1.55,4.26-1.18,5.54a45.44,45.44,0,0,1-9.8,3.17c-6.08,1.18-12.35,1.82-18.43,3-4.08.72-4.54,1.63-4.72,5.81-.27,5.08-.27,10.16-.9,15.16-.37,3.44.54,7.08-1.55,10.25a1.92,1.92,0,0,0,1.36,2.91,14.12,14.12,0,0,0,4.36.09c4.81-.73,9.62-1.73,14.52-2.27s10-.64,15-.82,6.54-1.36,7.17-6.35c.55-4.72,1.09-9.44,1.27-14.25.27-4.63.09-9.26.27-13.89.19-5.63.37-11.26.64-16.79.27-5.27,1.36-11.35-.36-16.34-1-1.91-1.73-7.26-3.72-8.9" transform="translate(-0.06 -0.11)"/></g><g class="cls-2"><path d="M93.22,267.59a87.33,87.33,0,0,0-9.89,8.53,10.72,10.72,0,0,1-1.09.91c-10.53,6.81-21.42,13.16-32.32,19.51C34.76,305.35,19.06,313,3.27,320.6a3.62,3.62,0,0,0-1,.63,1.82,1.82,0,0,0,.91,2.55,5.12,5.12,0,0,0,3.08.09c26.78-5.09,52.29-17.43,77-28.41a11.12,11.12,0,0,0,1.27-.73c17.42-12.44,36.58-22.33,52.73-36.4,6.09-5.26,11.26-11.25,18.07-15.7a212,212,0,0,1-3.18,64.72c-2.09,10.34-5,20.6-5.17,31.13s2.9,21.69,10.8,28.59a7,7,0,0,0,4.45,2.09c3.17,0,5-3.63,5.8-6.72,11.35-38.39.73-79.78,6.36-119.36,3.63.82,6.44,3.63,9,6.26,14,14.53,28.05,29,42,43.48C235.46,303.26,246,314,259.51,319.24c11.17,4.35,23.42,4.54,35.4,4,15.07-.63,30-2.45,44.93-4.17,2.45-.28,5.63-1.55,5.18-3.91a3.9,3.9,0,0,0-2.18-2.45c-4.45-2.63-9.71-3.63-14.8-4.63a307.65,307.65,0,0,1-140.42-69.16c-2.36-2-4.72-4.27-5.45-7.27a657.31,657.31,0,0,1,130.89-.54c5.36.54,12.62-.45,13.17-5.72a8.42,8.42,0,0,0-1.91-5.54c-5.81-8.62-16.16-13.34-26.5-14.7s-20.79.09-31.05,1.45c-28.68,3.72-57.55,6.36-86.41,7.9a3.51,3.51,0,0,1-2.54-.55c-1.09-.9-.64-2.54-.46-4,.73-4.81-2.63-9.62-6.8-12.07s-9.17-3.27-14.07-3.9c-3.63-.55-8.44-.28-9.44,3.17-1.27,4.36,4.81,6.9,6.8,11,1.82,3.81-.63,8.62-4.17,10.89s-8.08,2.63-12.35,2.9c-24.68,1.64-49.37,3.36-74.06,5-12.35.82-24.69,1.64-37,2.55C22.6,229.74-3,228.1.36,235.91a10.5,10.5,0,0,0,6,5.81c9.81,3.72,19.79,5.36,30.41,3.72,19.06-3,38.13-5.26,57.28-7.8,10.8-1.46,32.4-3.91,32.4-3.91s2.45-.36,2.91.55-.73,2.08-1.18,2.54c-3.82,4.08-10,10.89-15.07,16.25a2.35,2.35,0,0,1-.73.63c-5.53,4.81-13.43,9.53-19.15,13.89" transform="translate(-0.06 -0.11)"/></g><g class="cls-2"><path d="M78.15,128.08c2.36-.73-4.26,6.89-5.72,8.8-3.35,4.63-7.08,8.9-10.62,13.43-3.81,4.91-7.44,10-11.34,14.8-5.09,6.26-10.17,12.53-15.71,18.43-4.44,4.81-4.81,13.25,0,18,3.91,3.9,11.44,5,16.25,2.27s9.53-6,14.62-8.17c8.26-3.63,16.79-6.72,25.23-10a23,23,0,0,1,5.63-1,3,3,0,0,1,3.36,2c1.09,2.27,2.18,4.63,3.36,6.9a6.47,6.47,0,0,0,1.08,1.64c1.91,1.36,9,.81,10.53-1.09,3.18-3.73,4.91-7.9,2.91-12.8-1.09-2.73-2.82-5.27-4-8-3-6.72-9.16-10.44-14.7-14.43a12.82,12.82,0,0,0-10.26-1.73c-1.9.46-2.08.91-1.18,2.73s1.46,3.63,2.36,5.35c1.18,2.45,2.45,4.9,3.82,7.26.72,1.18.72,2.18-.46,2.73s-27.68,6.62-37.12,7c-1.91.1-2.18-.9-1.09-2.36,6.17-8.44,12.25-16.88,18.51-25.23,3.45-4.63,7.18-9.08,10.9-13.52,1.27-1.55,3-2.82,3.81-4.45,3-5.72,7.53-10.08,12-14.62,5.36-5.53,11.17-10.71,16.25-16.42,4-4.45,4.26-8.08,1.63-12a39.47,39.47,0,0,0-12.52-12.25c-1.82-1-4.18-1.09-6.36-1.36-1.54-.18-2.27.91-2.18,2.36s.37,3.08.46,4.63c.54,5.9-2.36,10.62-5.27,15.34-2.18,3.72-4.81,7.26-6.9,11a6.49,6.49,0,0,1-5,3.54c-4.08.73-8.26,1.54-12.34,2.18q-6.67.94-13.35,1.36c-2.63.18-3.17-1-2-3.27.9-1.81,1.81-3.54,2.72-5.26,5.08-8.9,9.8-18.06,15.52-26.6,5-7.44,11.08-14.07,16.7-21,2.55-3.08,5-6.17,5.81-10.25a7,7,0,0,0-1-4.63,33.79,33.79,0,0,0-8-9.62c-5-3.82-10.35-6.9-16.8-7.08-5-.18-6.53,2.81-3.9,7.17.36.63,1,1.09,1.36,1.72.73,1.36,1.82,2.82,1.91,4.36a47.56,47.56,0,0,1-2.54,19.79A213.59,213.59,0,0,1,52,94c-4.54,8.08-9.44,15.88-15.88,22.69a130.62,130.62,0,0,0-8.81,11,5.61,5.61,0,0,0-.72,2.73,28.28,28.28,0,0,0,.27,4.81c1.45,7.8,5.35,10.44,12.61,7.71s14.26-6.62,21.43-9.71c4.26-2,13-3.72,17.24-5.17" transform="translate(-0.06 -0.11)"/></g><g class="cls-2"><path d="M274.12,158.21s-21.69,3.72-24.68,3.9a20.37,20.37,0,0,1-2.46.19c-3.63-.19-7.35-.37-11-.73-1.36-.09-3.45.54-4-.73s1.54-2.08,2.27-3.17c0-.09.09-.09.18-.18,7.26-7,14.52-14.07,22-21,4.63-4.36,9.54-8.53,14.16-12.89,2.27-2.09,4.09-4.72,6.36-6.72,6.08-5.08,12.43-9.89,18.61-14.79a19.52,19.52,0,0,0,4-3.73c2.81-4,.91-8-1.36-11-3.36-4.45-7.54-8.35-11.62-12.25-2-2-4.81-2.54-7.62-2.45-3.18.18-3.91,1.18-3.54,4.35a4.52,4.52,0,0,0,.18,1.09c1.18,7-.73,13.16-4.9,18.79-2.09,2.82-4.63,4.81-8.36,5.09-3,.18-6,.63-9,.81-5.18.37-10.44,1-15.61,1.09a8.51,8.51,0,0,1-3.45-.63c-1.18-.91-.37-.91,1.45-2.45,7.35-6,11.53-15,17.25-22.52,2.26-3,4.35-6.35,6.8-9.16,5.81-6.81,12-13.35,17.88-20.06,2.46-2.82,3.54-5.81,1.91-9.81s-28-1.9-28,13.16S215.94,106.65,216,109.65a29.87,29.87,0,0,0,1.18,8.44,9.06,9.06,0,0,0,10.71,6c4.63-1.09,8.81-3.72,13.35-5.26a111.48,111.48,0,0,1,12.25-3.45c2-.46,2.36.54,1.63,2.45-.9,2.63-2.9,4.36-4.72,6.44-4.72,5.36-8.71,11.44-14.16,16.16-3.08,2.72-5.71,5.9-8.8,8.62-3.36,3-7,5.54-10.44,8.45-2.09,1.72-4.45,3.35-5.72,5.62-3,5.27-1.36,15.52,4.45,19.34,2.36,1.54,5,3.9,8.26,2.54,5.36-2.09,10.71-4.45,16-6.81,1.63-.73,3.17-1.91,4.9-2.54,8.26-2.81,16.61-5.54,24.87-8.26a65.85,65.85,0,0,1,7.26-1.82c2-.45,2.9.46,3.63,2.45a33.14,33.14,0,0,0,4.54,9.17c4.63,6.27,15.16,4.18,16.34-3.63a13.51,13.51,0,0,0-.55-5.72c-.54-1.81-1.81-3.36-2.36-5.08a25.94,25.94,0,0,0-5.72-10.53c-1.45-1.54-3.26-2.72-4.72-4.27-3.35-3.9-7.89-5.8-12.61-7.17a3.62,3.62,0,0,0-3.09.64,4.45,4.45,0,0,0-.18,3.27c.63,3.63,9.35,13.52,1.81,13.52" transform="translate(-0.06 -0.11)"/></g></g></g></g></g></svg>